<svg width="200" height="120" viewBox="0 0 200 120" fill="none" xmlns="http://www.w3.org/2000/svg">
  <defs>
    <linearGradient id="luxuryGrad" x1="0%" y1="0%" x2="0%" y2="100%">
      <stop offset="0%" style="stop-color:#2a2a2a;stop-opacity:1" />
      <stop offset="100%" style="stop-color:#0a0a0a;stop-opacity:1" />
    </linearGradient>
  </defs>
  <rect x="35" y="42" width="130" height="38" rx="6" fill="url(#luxuryGrad)"/>
  <rect x="45" y="30" width="110" height="18" rx="4" fill="#1a1a1a"/>
  <circle cx="60" cy="85" r="13" fill="#3a3a3a"/>
  <circle cx="60" cy="85" r="8" fill="#5a5a5a"/>
  <circle cx="140" cy="85" r="13" fill="#3a3a3a"/>
  <circle cx="140" cy="85" r="8" fill="#5a5a5a"/>
  <rect x="50" y="48" width="30" height="18" rx="2" fill="#4169E1"/>
  <rect x="85" y="48" width="30" height="18" rx="2" fill="#4169E1"/>
  <rect x="120" y="48" width="30" height="18" rx="2" fill="#4169E1"/>
  <path d="M35 58 L23 75 L35 75 Z" fill="url(#luxuryGrad)"/>
  <path d="M165 58 L177 75 L165 75 Z" fill="url(#luxuryGrad)"/>
  <ellipse cx="155" cy="60" rx="6" ry="3" fill="#FFD700"/>
  <circle cx="155" cy="68" r="2" fill="#FF6347"/>
  <rect x="90" y="52" width="4" height="8" rx="1" fill="#C0C0C0"/>
</svg>
