<svg width="200" height="120" viewBox="0 0 200 120" fill="none" xmlns="http://www.w3.org/2000/svg">
  <defs>
    <linearGradient id="suvGrad" x1="0%" y1="0%" x2="0%" y2="100%">
      <stop offset="0%" style="stop-color:#1a1a1a;stop-opacity:1" />
      <stop offset="100%" style="stop-color:#0a0a0a;stop-opacity:1" />
    </linearGradient>
  </defs>
  <rect x="30" y="38" width="140" height="42" rx="5" fill="url(#suvGrad)"/>
  <rect x="40" y="22" width="120" height="22" rx="3" fill="#2a2a2a"/>
  <circle cx="55" cy="85" r="14" fill="#3a3a3a"/>
  <circle cx="55" cy="85" r="9" fill="#5a5a5a"/>
  <circle cx="145" cy="85" r="14" fill="#3a3a3a"/>
  <circle cx="145" cy="85" r="9" fill="#5a5a5a"/>
  <rect x="45" y="42" width="35" height="22" rx="2" fill="#4682B4"/>
  <rect x="85" y="42" width="35" height="22" rx="2" fill="#4682B4"/>
  <rect x="125" y="42" width="30" height="22" rx="2" fill="#4682B4"/>
  <path d="M30 52 L18 78 L30 78 Z" fill="url(#suvGrad)"/>
  <path d="M170 52 L182 78 L170 78 Z" fill="url(#suvGrad)"/>
  <ellipse cx="160" cy="58" rx="6" ry="3" fill="#FFD700"/>
  <rect x="30" y="80" width="140" height="3" rx="1" fill="#4a4a4a"/>
  <circle cx="160" cy="70" r="2" fill="#FF6347"/>
</svg>
